<?xml version="1.0" standalone="no"?>
<!DOCTYPE svg PUBLIC "-//W3C//DTD SVG 20010904//EN"
 "http://www.w3.org/TR/2001/REC-SVG-20010904/DTD/svg10.dtd">
<svg version="1.0" xmlns="http://www.w3.org/2000/svg"
 width="2000.000000pt" height="2000.000000pt" viewBox="0 0 2000.000000 2000.000000"
 preserveAspectRatio="xMidYMid meet">
<metadata>
Created by potrace 1.14, written by Peter Selinger 2001-2017
</metadata>
<g transform="translate(0.000000,2000.000000) scale(0.100000,-0.100000)"
fill="#000000" stroke="none">
<path d="M419 14585 c0 -5 -2 -2070 -2 -4588 -1 -3044 1 -4581 8 -4585 18 -11
9174 -8 9178 3 2 6 3 696 3 1535 l-1 1525 -100 1 c-55 1 -104 -1 -110 -3 -7
-2 -10 -485 -10 -1423 0 -781 -2 -1420 -5 -1421 -3 -1 -1970 -2 -4373 -3
-4361 -1 -4367 -1 -4368 19 0 11 -2 1979 -2 4372 -1 2895 1 4354 8 4356 6 2
1974 3 4375 2 l4365 -1 1 -1414 c1 -778 2 -1420 3 -1425 1 -7 41 -11 109 -10
l107 0 0 1533 c1 1061 -2 1532 -10 1533 -5 1 -2072 2 -4592 3 -3049 1 -4583
-2 -4584 -9z"/>
<path d="M3970 11198 c0 -13 -3 -39 -6 -59 l-6 -36 105 -28 c58 -15 110 -31
116 -34 20 -13 25 -234 24 -936 0 -673 -1 -693 -23 -795 -12 -58 -24 -119 -27
-137 -12 -80 -16 -85 -170 -202 l-151 -115 26 -38 c15 -21 29 -38 32 -38 3 0
75 38 161 83 137 72 169 93 252 172 53 49 98 96 100 105 3 8 26 74 52 145 27
74 47 147 47 170 0 22 -3 186 -8 365 -9 396 -9 528 1 875 4 149 7 284 6 301
-1 17 4 36 11 41 7 6 63 22 123 37 l110 27 3 61 3 60 -68 -6 c-273 -22 -372
-25 -483 -13 -36 4 -102 9 -147 12 -81 5 -83 5 -83 -17z"/>
<path d="M10498 11214 c-13 -12 -501 -21 -697 -13 -87 3 -104 2 -106 -11 -2
-8 -5 -32 -9 -52 -5 -30 -2 -38 12 -42 9 -2 58 -14 107 -27 50 -12 94 -26 99
-30 4 -4 10 -52 11 -106 2 -54 7 -210 11 -348 11 -325 11 -663 0 -950 -8 -216
-12 -322 -15 -371 -1 -17 -17 -24 -121 -49 l-120 -29 0 -52 0 -53 168 6 c215
8 263 8 462 -1 265 -13 300 -13 344 -5 22 4 57 10 76 13 19 3 84 15 144 26
l108 20 207 136 c334 220 296 187 317 274 10 41 19 80 20 85 2 12 43 183 85
360 34 142 35 158 26 258 -4 37 -10 97 -13 135 -3 37 -7 81 -9 97 -3 29 -159
359 -185 390 -7 8 -60 41 -119 74 -127 70 -185 102 -248 138 -87 48 -97 52
-238 83 -77 18 -149 34 -160 37 -21 5 -153 12 -157 7z m290 -207 l163 -45 103
-109 c180 -190 186 -197 187 -223 0 -14 2 -34 4 -45 2 -11 7 -54 11 -95 3 -41
7 -77 9 -80 2 -3 6 -43 10 -90 4 -47 9 -94 11 -105 8 -40 5 -102 -10 -185 -8
-47 -18 -105 -21 -130 -4 -25 -17 -110 -30 -190 l-24 -144 -94 -91 c-52 -49
-108 -102 -124 -117 -22 -21 -69 -39 -207 -78 l-178 -50 -186 2 -186 3 -2 115
c-1 63 -5 295 -10 515 -13 696 -10 1058 12 1165 1 8 3 18 3 21 1 3 90 5 199 4
l197 -2 163 -46z"/>
<path d="M14333 11162 l-9 -60 45 -12 c107 -28 157 -44 167 -54 23 -21 33
-268 33 -811 0 -482 -8 -772 -24 -910 -2 -16 -4 -39 -4 -50 -1 -17 -17 -25
-111 -49 -60 -16 -110 -29 -111 -30 0 0 -3 -27 -5 -60 l-6 -59 109 7 c59 4
131 9 158 12 63 6 253 6 280 0 12 -2 69 -7 128 -11 l107 -7 1 28 c1 16 3 43 5
60 l4 31 -106 28 c-58 15 -107 33 -109 39 -25 82 -40 1137 -22 1506 10 187 16
273 21 277 2 2 52 17 111 33 59 16 109 30 110 32 2 2 5 29 8 61 l4 59 -71 -6
c-268 -22 -367 -24 -486 -13 -41 4 -107 9 -146 13 l-71 5 -10 -59z"/>
<path d="M8232 10786 c-65 -185 -63 -181 -119 -195 -26 -7 -78 -21 -116 -32
l-67 -20 6 -42 c4 -23 10 -46 15 -51 5 -5 52 -16 106 -25 l97 -16 4 -70 c5
-96 5 -801 -1 -900 -4 -76 -2 -86 41 -195 25 -63 50 -120 56 -126 12 -12 204
-78 221 -76 6 0 21 3 35 5 14 3 52 8 85 12 54 6 122 38 224 104 11 7 10 16 -5
50 -17 39 -26 46 -49 41 -5 -1 -17 -3 -25 -5 -8 -2 -42 -11 -75 -20 -76 -21
-93 -25 -130 -31 l-31 -6 -28 90 c-27 87 -28 96 -31 363 -8 584 -6 751 7 765
2 1 53 5 113 9 61 4 127 8 149 9 38 3 55 17 56 46 1 8 3 32 6 53 6 36 5 37
-28 38 -18 1 -69 2 -113 4 -44 2 -111 3 -149 4 l-68 1 5 165 c3 91 2 166 -1
167 -4 0 -39 2 -77 3 l-70 3 -43 -122z"/>
<path d="M15595 10866 c-8 -23 -33 -90 -54 -151 l-39 -110 -78 -21 c-44 -12
-97 -26 -120 -33 l-41 -11 10 -48 c6 -26 15 -50 19 -53 5 -3 51 -11 103 -19
l95 -13 1 -56 c0 -31 3 -96 5 -146 7 -175 7 -423 0 -640 l-7 -220 47 -115 c25
-63 51 -118 58 -122 6 -4 54 -22 105 -39 95 -32 95 -32 190 -20 98 13 132 26
228 87 l54 34 -24 43 c-13 23 -30 41 -38 40 -8 -2 -71 -18 -140 -36 l-126 -34
-30 91 c-29 88 -30 99 -33 301 -7 482 -5 814 5 824 9 8 132 20 265 25 l44 1
11 64 c9 46 9 64 1 67 -12 5 -158 12 -277 13 l-75 1 4 168 4 169 -76 0 -76 -1
-15 -40z"/>
<path d="M7195 10640 c-22 -4 -56 -11 -75 -14 -64 -12 -85 -16 -105 -20 -11
-3 -28 -5 -37 -5 -9 -1 -66 -42 -126 -93 l-110 -92 4 -158 3 -159 58 -93 c53
-86 64 -97 133 -139 41 -25 167 -101 278 -169 l204 -124 42 -78 43 -78 -34
-104 c-30 -89 -38 -104 -56 -105 -12 0 -30 -2 -39 -4 -31 -6 -103 -16 -152
-21 -28 -3 -52 -7 -56 -9 -3 -2 -26 0 -50 5 -57 10 -103 18 -161 26 -25 3 -46
11 -46 18 0 11 -14 195 -18 246 -1 14 -3 36 -4 50 -1 23 -9 29 -65 47 l-65 21
-5 -27 c-15 -72 -66 -373 -66 -389 0 -14 30 -30 136 -71 123 -47 146 -52 242
-58 140 -8 137 -8 287 17 72 12 148 24 170 27 42 5 48 10 135 113 25 29 60 71
79 92 l35 39 -3 97 c-5 199 0 181 -77 277 -38 47 -85 95 -104 107 -42 25 -37
22 -318 183 -246 140 -229 124 -278 262 -17 48 -17 48 12 128 l29 80 55 12
c30 7 69 15 85 17 17 3 44 10 60 14 17 5 44 5 60 1 17 -4 48 -10 70 -14 86
-12 99 -19 106 -56 9 -51 39 -221 44 -248 2 -13 5 -24 7 -25 16 -11 119 -42
122 -37 3 3 7 27 11 51 11 76 13 94 20 135 3 22 8 55 10 73 6 44 15 111 21
144 5 32 8 30 -196 72 -69 14 -138 28 -155 31 -56 12 -120 14 -160 5z"/>
<path d="M12466 10642 c-58 -3 -67 -8 -229 -115 l-169 -112 -89 -177 -89 -178
0 -198 0 -198 50 -149 c38 -114 57 -155 78 -173 15 -13 65 -59 112 -101 146
-134 134 -127 271 -154 68 -14 156 -30 195 -37 l71 -13 204 58 c112 31 215 60
229 64 18 6 47 43 103 132 43 68 93 147 111 176 30 46 35 62 40 140 3 48 9
140 13 203 4 63 8 153 8 200 l-1 85 -68 120 c-37 66 -74 134 -82 150 -27 55
-48 72 -228 179 l-178 107 -147 -3 c-80 -2 -173 -4 -205 -6z m355 -182 l106
-53 28 -66 c16 -36 39 -88 51 -114 27 -57 32 -79 39 -177 3 -41 8 -102 11
-135 10 -116 7 -171 -15 -285 -13 -63 -25 -126 -27 -140 -17 -93 -35 -184 -37
-187 -2 -1 -68 -31 -148 -66 l-144 -63 -115 28 c-214 52 -194 40 -266 164 -50
88 -64 121 -69 169 -4 33 -9 71 -10 85 -20 162 -21 219 -12 407 l7 132 91 158
c50 87 94 161 98 164 3 4 38 9 76 13 111 9 180 18 184 22 10 9 53 -7 152 -56z"/>
<path d="M5020 10579 c-102 -21 -186 -38 -187 -39 -3 0 7 -74 13 -91 2 -10 12
-15 22 -13 33 7 183 11 187 5 2 -4 7 -43 11 -86 3 -44 9 -93 11 -110 3 -16 6
-205 7 -420 2 -231 8 -408 14 -435 6 -25 13 -64 17 -88 3 -24 9 -52 13 -62 7
-20 280 -212 291 -205 4 2 58 7 121 10 189 11 144 -8 369 158 73 54 137 95
140 90 4 -4 13 -33 21 -63 7 -30 21 -82 31 -116 l19 -60 202 0 203 1 6 30 c17
78 26 71 -182 131 -15 4 -17 33 -18 277 -1 523 0 762 4 802 2 22 6 97 10 166
l6 126 -53 11 c-29 7 -63 14 -76 17 -21 4 -419 -69 -429 -79 -2 -2 -1 -26 3
-53 l6 -49 103 4 c57 2 105 0 108 -5 15 -23 28 -967 14 -989 -3 -6 -76 -53
-162 -104 l-155 -92 -58 6 c-31 3 -70 8 -87 10 -16 3 -47 7 -68 10 -21 2 -40
6 -41 7 -2 2 -17 40 -35 84 -17 44 -35 87 -39 95 -10 19 -8 666 3 932 l7 197
-43 12 c-79 21 -140 17 -329 -22z"/>
</g>
</svg>
